<svg width="30" height="16" viewBox="0 0 30 16" fill="none" xmlns="http://www.w3.org/2000/svg">
<path d="M0.937476 2.37501H29.0624C29.58 2.37501 29.9999 1.95498 29.9999 1.43754C29.9999 0.920016 29.5799 0.500061 29.0624 0.500061H0.937476C0.419955 0.500061 0 0.920094 0 1.43754C0 1.95498 0.420033 2.37501 0.937476 2.37501Z" fill="black"/>
<path d="M29.0624 7.06256H0.937476C0.419955 7.06256 0 7.48259 0 8.00003C0 8.51747 0.420033 8.9375 0.937476 8.9375H29.0624C29.58 8.9375 29.9999 8.51747 29.9999 8.00003C29.9999 7.48259 29.58 7.06256 29.0624 7.06256Z" fill="black"/>
<path d="M28.6875 14H9.93748C9.41995 14 9 14.42 9 14.9375C9 15.455 9.42003 15.875 9.93748 15.875H28.6875C29.205 15.875 29.6249 15.4549 29.6249 14.9375C29.625 14.42 29.205 14 28.6875 14Z" fill="black"/>
</svg>
